<?xml version="1.0" encoding="utf-8"?>
<!-- Generator: Adobe Illustrator 17.1.0, SVG Export Plug-In . SVG Version: 6.00 Build 0)  -->
<!DOCTYPE svg PUBLIC "-//W3C//DTD SVG 1.1//EN" "http://www.w3.org/Graphics/SVG/1.1/DTD/svg11.dtd">
<svg version="1.1" id="Layer_1" xmlns="http://www.w3.org/2000/svg" xmlns:xlink="http://www.w3.org/1999/xlink" x="0px" y="0px"
	 viewBox="0 0 100 54" enable-background="new 0 0 100 54" xml:space="preserve">
<g>
	<polygon fill="#1E1817" points="0,0 0,3 0,9 3,9 3,3 9,3 9,0 3.4,0 	"/>
	<polygon fill="#1E1817" points="3,45 0,45 0,51 0,54 3.4,54 9,54 9,51 3,51 	"/>
	<polygon fill="#1E1817" points="97,51 91,51 91,54 97.4,54 100,54 100,51 100,45 97,45 	"/>
	<polygon fill="#1E1817" points="97.4,0 91,0 91,3 97,3 97,9 100,9 100,3 100,0 	"/>
</g>
</svg>
